<mxfile host="app.diagrams.net" modified="2021-11-03T11:11:12.032Z" agent="5.0 (Windows NT 10.0; Win64; x64) AppleWebKit/537.36 (KHTML, like Gecko) Chrome/95.0.4638.54 Safari/537.36" etag="IFTAF-8qG0nH1Kno3vhT" version="15.6.6" type="github">
  <diagram id="8-YyJWkjwbhw6azQE4Ks" name="Page-1">
    <mxGraphModel dx="1038" dy="579" grid="1" gridSize="10" guides="1" tooltips="1" connect="1" arrows="1" fold="1" page="1" pageScale="1" pageWidth="827" pageHeight="1169" math="0" shadow="0">
      <root>
        <mxCell id="0" />
        <mxCell id="1" parent="0" />
        <mxCell id="t8kMIJkYFqxzs-BZw5a5-2" value="" style="rounded=0;whiteSpace=wrap;html=1;fontColor=default;strokeColor=default;fillColor=default;" parent="1" vertex="1">
          <mxGeometry x="150" y="80" width="780" height="790" as="geometry" />
        </mxCell>
        <mxCell id="t8kMIJkYFqxzs-BZw5a5-18" style="edgeStyle=orthogonalEdgeStyle;rounded=0;orthogonalLoop=1;jettySize=auto;html=1;exitX=0;exitY=0.3333333333333333;exitDx=0;exitDy=0;exitPerimeter=0;entryX=1;entryY=0.5;entryDx=0;entryDy=0;fontColor=default;" parent="1" source="t8kMIJkYFqxzs-BZw5a5-5" target="t8kMIJkYFqxzs-BZw5a5-14" edge="1">
          <mxGeometry relative="1" as="geometry" />
        </mxCell>
        <mxCell id="t8kMIJkYFqxzs-BZw5a5-23" style="edgeStyle=orthogonalEdgeStyle;rounded=0;orthogonalLoop=1;jettySize=auto;html=1;exitX=0;exitY=1;exitDx=0;exitDy=0;exitPerimeter=0;entryX=1;entryY=0.5;entryDx=0;entryDy=0;fontColor=default;" parent="1" source="t8kMIJkYFqxzs-BZw5a5-5" target="t8kMIJkYFqxzs-BZw5a5-21" edge="1">
          <mxGeometry relative="1" as="geometry" />
        </mxCell>
        <mxCell id="t8kMIJkYFqxzs-BZw5a5-37" style="edgeStyle=orthogonalEdgeStyle;rounded=0;orthogonalLoop=1;jettySize=auto;html=1;exitX=0;exitY=1;exitDx=0;exitDy=0;exitPerimeter=0;entryX=1;entryY=0.5;entryDx=0;entryDy=0;labelBackgroundColor=default;fontColor=default;strokeColor=default;startArrow=none;" parent="1" source="t8kMIJkYFqxzs-BZw5a5-39" target="t8kMIJkYFqxzs-BZw5a5-34" edge="1">
          <mxGeometry relative="1" as="geometry" />
        </mxCell>
        <mxCell id="t8kMIJkYFqxzs-BZw5a5-51" style="edgeStyle=orthogonalEdgeStyle;rounded=0;orthogonalLoop=1;jettySize=auto;html=1;exitX=0;exitY=1;exitDx=0;exitDy=0;exitPerimeter=0;entryX=1;entryY=0.5;entryDx=0;entryDy=0;labelBackgroundColor=default;fontColor=default;strokeColor=default;" parent="1" source="t8kMIJkYFqxzs-BZw5a5-5" target="t8kMIJkYFqxzs-BZw5a5-46" edge="1">
          <mxGeometry relative="1" as="geometry" />
        </mxCell>
        <mxCell id="t8kMIJkYFqxzs-BZw5a5-5" value="Visitor&lt;br&gt;" style="shape=umlActor;verticalLabelPosition=bottom;verticalAlign=top;html=1;outlineConnect=0;fontColor=default;strokeColor=default;fillColor=default;" parent="1" vertex="1">
          <mxGeometry x="960" y="120" width="50" height="90" as="geometry" />
        </mxCell>
        <mxCell id="t8kMIJkYFqxzs-BZw5a5-17" style="edgeStyle=orthogonalEdgeStyle;rounded=0;orthogonalLoop=1;jettySize=auto;html=1;exitX=1;exitY=0.3333333333333333;exitDx=0;exitDy=0;exitPerimeter=0;entryX=0;entryY=0.5;entryDx=0;entryDy=0;fontColor=default;" parent="1" source="t8kMIJkYFqxzs-BZw5a5-6" target="t8kMIJkYFqxzs-BZw5a5-7" edge="1">
          <mxGeometry relative="1" as="geometry" />
        </mxCell>
        <mxCell id="t8kMIJkYFqxzs-BZw5a5-20" style="edgeStyle=orthogonalEdgeStyle;rounded=0;orthogonalLoop=1;jettySize=auto;html=1;exitX=1;exitY=1;exitDx=0;exitDy=0;exitPerimeter=0;entryX=0;entryY=0.5;entryDx=0;entryDy=0;fontColor=default;" parent="1" source="t8kMIJkYFqxzs-BZw5a5-6" target="t8kMIJkYFqxzs-BZw5a5-19" edge="1">
          <mxGeometry relative="1" as="geometry" />
        </mxCell>
        <mxCell id="t8kMIJkYFqxzs-BZw5a5-22" style="edgeStyle=orthogonalEdgeStyle;rounded=0;orthogonalLoop=1;jettySize=auto;html=1;exitX=1;exitY=1;exitDx=0;exitDy=0;exitPerimeter=0;fontColor=default;strokeColor=default;labelBackgroundColor=default;" parent="1" source="t8kMIJkYFqxzs-BZw5a5-6" target="t8kMIJkYFqxzs-BZw5a5-21" edge="1">
          <mxGeometry relative="1" as="geometry">
            <Array as="points">
              <mxPoint x="100" y="230" />
              <mxPoint x="285" y="230" />
              <mxPoint x="285" y="170" />
            </Array>
          </mxGeometry>
        </mxCell>
        <mxCell id="t8kMIJkYFqxzs-BZw5a5-25" style="edgeStyle=orthogonalEdgeStyle;rounded=0;orthogonalLoop=1;jettySize=auto;html=1;exitX=1;exitY=1;exitDx=0;exitDy=0;exitPerimeter=0;labelBackgroundColor=default;fontColor=default;strokeColor=default;" parent="1" source="t8kMIJkYFqxzs-BZw5a5-6" edge="1">
          <mxGeometry relative="1" as="geometry">
            <mxPoint x="100.17647058823536" y="240" as="targetPoint" />
          </mxGeometry>
        </mxCell>
        <mxCell id="t8kMIJkYFqxzs-BZw5a5-32" style="edgeStyle=orthogonalEdgeStyle;rounded=0;orthogonalLoop=1;jettySize=auto;html=1;exitX=1;exitY=1;exitDx=0;exitDy=0;exitPerimeter=0;entryX=0;entryY=0.5;entryDx=0;entryDy=0;labelBackgroundColor=default;fontColor=default;strokeColor=default;" parent="1" source="t8kMIJkYFqxzs-BZw5a5-6" target="t8kMIJkYFqxzs-BZw5a5-31" edge="1">
          <mxGeometry relative="1" as="geometry" />
        </mxCell>
        <mxCell id="t8kMIJkYFqxzs-BZw5a5-33" style="edgeStyle=orthogonalEdgeStyle;rounded=0;orthogonalLoop=1;jettySize=auto;html=1;exitX=1;exitY=1;exitDx=0;exitDy=0;exitPerimeter=0;labelBackgroundColor=default;fontColor=default;strokeColor=default;" parent="1" source="t8kMIJkYFqxzs-BZw5a5-6" target="t8kMIJkYFqxzs-BZw5a5-27" edge="1">
          <mxGeometry relative="1" as="geometry" />
        </mxCell>
        <mxCell id="t8kMIJkYFqxzs-BZw5a5-35" style="edgeStyle=orthogonalEdgeStyle;rounded=0;orthogonalLoop=1;jettySize=auto;html=1;exitX=1;exitY=1;exitDx=0;exitDy=0;exitPerimeter=0;labelBackgroundColor=default;fontColor=default;strokeColor=default;" parent="1" source="t8kMIJkYFqxzs-BZw5a5-6" edge="1">
          <mxGeometry relative="1" as="geometry">
            <mxPoint x="100.17647058823536" y="240" as="targetPoint" />
          </mxGeometry>
        </mxCell>
        <mxCell id="t8kMIJkYFqxzs-BZw5a5-49" value="Text" style="edgeLabel;html=1;align=center;verticalAlign=middle;resizable=0;points=[];fontColor=default;" parent="t8kMIJkYFqxzs-BZw5a5-35" vertex="1" connectable="0">
          <mxGeometry x="0.5307" y="3" relative="1" as="geometry">
            <mxPoint as="offset" />
          </mxGeometry>
        </mxCell>
        <mxCell id="t8kMIJkYFqxzs-BZw5a5-38" style="edgeStyle=orthogonalEdgeStyle;rounded=0;orthogonalLoop=1;jettySize=auto;html=1;exitX=1;exitY=1;exitDx=0;exitDy=0;exitPerimeter=0;entryX=0;entryY=0.5;entryDx=0;entryDy=0;labelBackgroundColor=default;fontColor=default;strokeColor=default;" parent="1" source="t8kMIJkYFqxzs-BZw5a5-6" target="t8kMIJkYFqxzs-BZw5a5-34" edge="1">
          <mxGeometry relative="1" as="geometry" />
        </mxCell>
        <mxCell id="t8kMIJkYFqxzs-BZw5a5-48" style="edgeStyle=orthogonalEdgeStyle;rounded=0;orthogonalLoop=1;jettySize=auto;html=1;exitX=1;exitY=1;exitDx=0;exitDy=0;exitPerimeter=0;entryX=0;entryY=0.5;entryDx=0;entryDy=0;labelBackgroundColor=default;fontColor=default;strokeColor=default;" parent="1" source="t8kMIJkYFqxzs-BZw5a5-6" target="t8kMIJkYFqxzs-BZw5a5-43" edge="1">
          <mxGeometry relative="1" as="geometry" />
        </mxCell>
        <mxCell id="t8kMIJkYFqxzs-BZw5a5-54" style="edgeStyle=orthogonalEdgeStyle;rounded=0;orthogonalLoop=1;jettySize=auto;html=1;exitX=1;exitY=1;exitDx=0;exitDy=0;exitPerimeter=0;entryX=0.5;entryY=0;entryDx=0;entryDy=0;labelBackgroundColor=default;fontColor=default;strokeColor=default;" parent="1" source="t8kMIJkYFqxzs-BZw5a5-6" target="t8kMIJkYFqxzs-BZw5a5-45" edge="1">
          <mxGeometry relative="1" as="geometry" />
        </mxCell>
        <mxCell id="t8kMIJkYFqxzs-BZw5a5-55" style="edgeStyle=orthogonalEdgeStyle;rounded=0;orthogonalLoop=1;jettySize=auto;html=1;exitX=1;exitY=1;exitDx=0;exitDy=0;exitPerimeter=0;entryX=0;entryY=0.5;entryDx=0;entryDy=0;labelBackgroundColor=default;fontColor=default;strokeColor=default;" parent="1" source="t8kMIJkYFqxzs-BZw5a5-6" target="t8kMIJkYFqxzs-BZw5a5-47" edge="1">
          <mxGeometry relative="1" as="geometry" />
        </mxCell>
        <mxCell id="t8kMIJkYFqxzs-BZw5a5-6" value="User" style="shape=umlActor;verticalLabelPosition=bottom;verticalAlign=top;html=1;outlineConnect=0;fontColor=default;strokeColor=default;fillColor=default;" parent="1" vertex="1">
          <mxGeometry x="10" y="250" width="50" height="90" as="geometry" />
        </mxCell>
        <mxCell id="t8kMIJkYFqxzs-BZw5a5-7" value="Se dÃ©connecter" style="ellipse;whiteSpace=wrap;html=1;fontColor=default;strokeColor=default;fillColor=default;" parent="1" vertex="1">
          <mxGeometry x="170" y="100" width="120" height="80" as="geometry" />
        </mxCell>
        <mxCell id="t8kMIJkYFqxzs-BZw5a5-53" style="edgeStyle=orthogonalEdgeStyle;rounded=0;orthogonalLoop=1;jettySize=auto;html=1;exitX=1;exitY=1;exitDx=0;exitDy=0;exitPerimeter=0;entryX=0;entryY=0.5;entryDx=0;entryDy=0;labelBackgroundColor=default;fontColor=default;strokeColor=default;" parent="1" source="t8kMIJkYFqxzs-BZw5a5-10" target="t8kMIJkYFqxzs-BZw5a5-41" edge="1">
          <mxGeometry relative="1" as="geometry" />
        </mxCell>
        <mxCell id="t8kMIJkYFqxzs-BZw5a5-10" value="Super Admin" style="shape=umlActor;verticalLabelPosition=bottom;verticalAlign=top;html=1;outlineConnect=0;fontColor=default;strokeColor=default;fillColor=default;" parent="1" vertex="1">
          <mxGeometry x="40" y="660" width="50" height="90" as="geometry" />
        </mxCell>
        <mxCell id="t8kMIJkYFqxzs-BZw5a5-14" value="Se connecter ou s&#39;inscrire" style="ellipse;whiteSpace=wrap;html=1;fontColor=default;strokeColor=default;fillColor=default;" parent="1" vertex="1">
          <mxGeometry x="780" y="100" width="120" height="80" as="geometry" />
        </mxCell>
        <mxCell id="t8kMIJkYFqxzs-BZw5a5-42" style="edgeStyle=orthogonalEdgeStyle;rounded=0;orthogonalLoop=1;jettySize=auto;html=1;exitX=1;exitY=0;exitDx=0;exitDy=0;entryX=0;entryY=1;entryDx=0;entryDy=0;labelBackgroundColor=default;fontColor=default;strokeColor=default;" parent="1" source="t8kMIJkYFqxzs-BZw5a5-19" target="t8kMIJkYFqxzs-BZw5a5-27" edge="1">
          <mxGeometry relative="1" as="geometry" />
        </mxCell>
        <mxCell id="t8kMIJkYFqxzs-BZw5a5-19" value="Publier un post" style="ellipse;whiteSpace=wrap;html=1;fontColor=default;strokeColor=default;fillColor=default;" parent="1" vertex="1">
          <mxGeometry x="180" y="260" width="120" height="80" as="geometry" />
        </mxCell>
        <mxCell id="t8kMIJkYFqxzs-BZw5a5-26" style="edgeStyle=orthogonalEdgeStyle;rounded=0;orthogonalLoop=1;jettySize=auto;html=1;exitX=0.5;exitY=1;exitDx=0;exitDy=0;entryX=0.5;entryY=0;entryDx=0;entryDy=0;labelBackgroundColor=default;fontColor=default;strokeColor=default;" parent="1" source="t8kMIJkYFqxzs-BZw5a5-21" target="t8kMIJkYFqxzs-BZw5a5-24" edge="1">
          <mxGeometry relative="1" as="geometry" />
        </mxCell>
        <mxCell id="t8kMIJkYFqxzs-BZw5a5-21" value="Voir les Ã©vÃ©nements" style="ellipse;whiteSpace=wrap;html=1;fontColor=default;strokeColor=default;fillColor=default;" parent="1" vertex="1">
          <mxGeometry x="470" y="130" width="120" height="80" as="geometry" />
        </mxCell>
        <mxCell id="t8kMIJkYFqxzs-BZw5a5-24" value="Voir la carte des Ã©vÃ©nements" style="ellipse;whiteSpace=wrap;html=1;fontColor=default;strokeColor=default;fillColor=default;" parent="1" vertex="1">
          <mxGeometry x="640" y="250" width="120" height="80" as="geometry" />
        </mxCell>
        <mxCell id="t8kMIJkYFqxzs-BZw5a5-27" value="J&#39;aime, commenter" style="ellipse;whiteSpace=wrap;html=1;fontColor=default;strokeColor=default;fillColor=default;" parent="1" vertex="1">
          <mxGeometry x="353" y="190" width="120" height="80" as="geometry" />
        </mxCell>
        <mxCell id="t8kMIJkYFqxzs-BZw5a5-31" value="Envoyer des messages" style="ellipse;whiteSpace=wrap;html=1;fontColor=default;strokeColor=default;fillColor=default;" parent="1" vertex="1">
          <mxGeometry x="200" y="410" width="120" height="80" as="geometry" />
        </mxCell>
        <mxCell id="t8kMIJkYFqxzs-BZw5a5-50" style="edgeStyle=orthogonalEdgeStyle;rounded=0;orthogonalLoop=1;jettySize=auto;html=1;exitX=0.5;exitY=1;exitDx=0;exitDy=0;entryX=0.5;entryY=0;entryDx=0;entryDy=0;labelBackgroundColor=default;fontColor=default;strokeColor=default;" parent="1" source="t8kMIJkYFqxzs-BZw5a5-34" target="t8kMIJkYFqxzs-BZw5a5-46" edge="1">
          <mxGeometry relative="1" as="geometry" />
        </mxCell>
        <mxCell id="t8kMIJkYFqxzs-BZw5a5-34" value="Fil d&#39;actualitÃ©" style="ellipse;whiteSpace=wrap;html=1;fontColor=default;strokeColor=default;fillColor=default;" parent="1" vertex="1">
          <mxGeometry x="550" y="340" width="120" height="80" as="geometry" />
        </mxCell>
        <mxCell id="t8kMIJkYFqxzs-BZw5a5-39" value="LimitÃ©" style="text;html=1;strokeColor=none;fillColor=none;align=center;verticalAlign=middle;whiteSpace=wrap;rounded=0;fontColor=default;" parent="1" vertex="1">
          <mxGeometry x="690" y="360" width="60" height="30" as="geometry" />
        </mxCell>
        <mxCell id="t8kMIJkYFqxzs-BZw5a5-40" value="" style="edgeStyle=orthogonalEdgeStyle;rounded=0;orthogonalLoop=1;jettySize=auto;html=1;exitX=0;exitY=1;exitDx=0;exitDy=0;exitPerimeter=0;entryX=1;entryY=0.5;entryDx=0;entryDy=0;labelBackgroundColor=default;fontColor=default;strokeColor=default;endArrow=none;" parent="1" source="t8kMIJkYFqxzs-BZw5a5-5" target="t8kMIJkYFqxzs-BZw5a5-39" edge="1">
          <mxGeometry relative="1" as="geometry">
            <mxPoint x="960" y="210" as="sourcePoint" />
            <mxPoint x="590" y="380" as="targetPoint" />
          </mxGeometry>
        </mxCell>
        <mxCell id="t8kMIJkYFqxzs-BZw5a5-41" value="Dashboard" style="ellipse;whiteSpace=wrap;html=1;fontColor=default;strokeColor=default;fillColor=default;" parent="1" vertex="1">
          <mxGeometry x="190" y="740" width="120" height="80" as="geometry" />
        </mxCell>
        <mxCell id="t8kMIJkYFqxzs-BZw5a5-43" value="Follow / Unfolllow" style="ellipse;whiteSpace=wrap;html=1;fontColor=default;strokeColor=default;fillColor=default;" parent="1" vertex="1">
          <mxGeometry x="200" y="540" width="120" height="80" as="geometry" />
        </mxCell>
        <mxCell id="t8kMIJkYFqxzs-BZw5a5-45" value="DÃ©sactiver / Supprimer&amp;nbsp;" style="ellipse;whiteSpace=wrap;html=1;fontColor=default;strokeColor=default;fillColor=default;" parent="1" vertex="1">
          <mxGeometry x="380" y="420" width="120" height="80" as="geometry" />
        </mxCell>
        <mxCell id="t8kMIJkYFqxzs-BZw5a5-57" style="edgeStyle=orthogonalEdgeStyle;rounded=0;orthogonalLoop=1;jettySize=auto;html=1;exitX=0.5;exitY=1;exitDx=0;exitDy=0;entryX=0.5;entryY=0;entryDx=0;entryDy=0;labelBackgroundColor=default;fontColor=default;strokeColor=default;" parent="1" source="t8kMIJkYFqxzs-BZw5a5-46" target="t8kMIJkYFqxzs-BZw5a5-56" edge="1">
          <mxGeometry relative="1" as="geometry" />
        </mxCell>
        <mxCell id="t8kMIJkYFqxzs-BZw5a5-46" value="Just Listen" style="ellipse;whiteSpace=wrap;html=1;fontColor=default;strokeColor=default;fillColor=default;" parent="1" vertex="1">
          <mxGeometry x="550" y="545" width="120" height="80" as="geometry" />
        </mxCell>
        <mxCell id="t8kMIJkYFqxzs-BZw5a5-47" value="SuggÃ©rer des utilisateurs" style="ellipse;whiteSpace=wrap;html=1;fontColor=default;strokeColor=default;fillColor=default;" parent="1" vertex="1">
          <mxGeometry x="380" y="610" width="120" height="80" as="geometry" />
        </mxCell>
        <mxCell id="t8kMIJkYFqxzs-BZw5a5-52" value="LimitÃ©" style="text;html=1;strokeColor=none;fillColor=none;align=center;verticalAlign=middle;whiteSpace=wrap;rounded=0;fontColor=default;" parent="1" vertex="1">
          <mxGeometry x="690" y="555" width="60" height="30" as="geometry" />
        </mxCell>
        <mxCell id="t8kMIJkYFqxzs-BZw5a5-56" value="Nous contacter&lt;br&gt;Admin SUPER PDG" style="ellipse;whiteSpace=wrap;html=1;fontColor=default;strokeColor=default;fillColor=default;" parent="1" vertex="1">
          <mxGeometry x="551" y="700" width="120" height="80" as="geometry" />
        </mxCell>
        <mxCell id="80sguaFrlqIsxUJohQp9-3" value="User" style="swimlane;fontStyle=0;childLayout=stackLayout;horizontal=1;startSize=30;horizontalStack=0;resizeParent=1;resizeParentMax=0;resizeLast=0;collapsible=1;marginBottom=0;fontColor=default;strokeColor=default;fillColor=default;" vertex="1" parent="1">
          <mxGeometry x="150" y="930" width="200" height="240" as="geometry" />
        </mxCell>
        <mxCell id="80sguaFrlqIsxUJohQp9-4" value="firstName: StringÂ " style="text;strokeColor=none;fillColor=none;align=left;verticalAlign=middle;spacingLeft=4;spacingRight=4;overflow=hidden;points=[[0,0.5],[1,0.5]];portConstraint=eastwest;rotatable=0;fontColor=default;" vertex="1" parent="80sguaFrlqIsxUJohQp9-3">
          <mxGeometry y="30" width="200" height="30" as="geometry" />
        </mxCell>
        <mxCell id="80sguaFrlqIsxUJohQp9-5" value="lastName: String" style="text;strokeColor=none;fillColor=none;align=left;verticalAlign=middle;spacingLeft=4;spacingRight=4;overflow=hidden;points=[[0,0.5],[1,0.5]];portConstraint=eastwest;rotatable=0;fontColor=default;" vertex="1" parent="80sguaFrlqIsxUJohQp9-3">
          <mxGeometry y="60" width="200" height="30" as="geometry" />
        </mxCell>
        <mxCell id="80sguaFrlqIsxUJohQp9-6" value="surname: String" style="text;strokeColor=none;fillColor=none;align=left;verticalAlign=middle;spacingLeft=4;spacingRight=4;overflow=hidden;points=[[0,0.5],[1,0.5]];portConstraint=eastwest;rotatable=0;fontColor=default;" vertex="1" parent="80sguaFrlqIsxUJohQp9-3">
          <mxGeometry y="90" width="200" height="30" as="geometry" />
        </mxCell>
        <mxCell id="80sguaFrlqIsxUJohQp9-7" value="birthDate: Date" style="text;strokeColor=none;fillColor=none;align=left;verticalAlign=middle;spacingLeft=4;spacingRight=4;overflow=hidden;points=[[0,0.5],[1,0.5]];portConstraint=eastwest;rotatable=0;fontColor=default;" vertex="1" parent="80sguaFrlqIsxUJohQp9-3">
          <mxGeometry y="120" width="200" height="30" as="geometry" />
        </mxCell>
        <mxCell id="80sguaFrlqIsxUJohQp9-8" value="email: String" style="text;strokeColor=none;fillColor=none;align=left;verticalAlign=middle;spacingLeft=4;spacingRight=4;overflow=hidden;points=[[0,0.5],[1,0.5]];portConstraint=eastwest;rotatable=0;fontColor=default;" vertex="1" parent="80sguaFrlqIsxUJohQp9-3">
          <mxGeometry y="150" width="200" height="30" as="geometry" />
        </mxCell>
        <mxCell id="80sguaFrlqIsxUJohQp9-9" value="password: String" style="text;strokeColor=none;fillColor=none;align=left;verticalAlign=middle;spacingLeft=4;spacingRight=4;overflow=hidden;points=[[0,0.5],[1,0.5]];portConstraint=eastwest;rotatable=0;fontColor=default;" vertex="1" parent="80sguaFrlqIsxUJohQp9-3">
          <mxGeometry y="180" width="200" height="30" as="geometry" />
        </mxCell>
        <mxCell id="80sguaFrlqIsxUJohQp9-21" value="category: id" style="text;strokeColor=none;fillColor=none;align=left;verticalAlign=middle;spacingLeft=4;spacingRight=4;overflow=hidden;points=[[0,0.5],[1,0.5]];portConstraint=eastwest;rotatable=0;fontColor=default;" vertex="1" parent="80sguaFrlqIsxUJohQp9-3">
          <mxGeometry y="210" width="200" height="30" as="geometry" />
        </mxCell>
        <mxCell id="80sguaFrlqIsxUJohQp9-10" value="Post" style="swimlane;fontStyle=0;childLayout=stackLayout;horizontal=1;startSize=30;horizontalStack=0;resizeParent=1;resizeParentMax=0;resizeLast=0;collapsible=1;marginBottom=0;fontColor=default;strokeColor=default;fillColor=default;" vertex="1" parent="1">
          <mxGeometry x="450" y="930" width="200" height="150" as="geometry" />
        </mxCell>
        <mxCell id="80sguaFrlqIsxUJohQp9-12" value="text: String" style="text;strokeColor=none;fillColor=none;align=left;verticalAlign=middle;spacingLeft=4;spacingRight=4;overflow=hidden;points=[[0,0.5],[1,0.5]];portConstraint=eastwest;rotatable=0;fontColor=default;" vertex="1" parent="80sguaFrlqIsxUJohQp9-10">
          <mxGeometry y="30" width="200" height="30" as="geometry" />
        </mxCell>
        <mxCell id="80sguaFrlqIsxUJohQp9-13" value="file: String" style="text;strokeColor=none;fillColor=none;align=left;verticalAlign=middle;spacingLeft=4;spacingRight=4;overflow=hidden;points=[[0,0.5],[1,0.5]];portConstraint=eastwest;rotatable=0;fontColor=default;" vertex="1" parent="80sguaFrlqIsxUJohQp9-10">
          <mxGeometry y="60" width="200" height="30" as="geometry" />
        </mxCell>
        <mxCell id="80sguaFrlqIsxUJohQp9-26" value="location: String" style="text;strokeColor=none;fillColor=none;align=left;verticalAlign=middle;spacingLeft=4;spacingRight=4;overflow=hidden;points=[[0,0.5],[1,0.5]];portConstraint=eastwest;rotatable=0;fontColor=default;" vertex="1" parent="80sguaFrlqIsxUJohQp9-10">
          <mxGeometry y="90" width="200" height="30" as="geometry" />
        </mxCell>
        <mxCell id="80sguaFrlqIsxUJohQp9-27" value="createdOn: Date" style="text;strokeColor=none;fillColor=none;align=left;verticalAlign=middle;spacingLeft=4;spacingRight=4;overflow=hidden;points=[[0,0.5],[1,0.5]];portConstraint=eastwest;rotatable=0;fontColor=default;" vertex="1" parent="80sguaFrlqIsxUJohQp9-10">
          <mxGeometry y="120" width="200" height="30" as="geometry" />
        </mxCell>
        <mxCell id="80sguaFrlqIsxUJohQp9-16" value="Course Post" style="swimlane;fontStyle=0;childLayout=stackLayout;horizontal=1;startSize=30;horizontalStack=0;resizeParent=1;resizeParentMax=0;resizeLast=0;collapsible=1;marginBottom=0;fontColor=default;strokeColor=default;fillColor=default;" vertex="1" parent="1">
          <mxGeometry x="730" y="930" width="190" height="180" as="geometry" />
        </mxCell>
        <mxCell id="80sguaFrlqIsxUJohQp9-17" value="title: String" style="text;strokeColor=none;fillColor=none;align=left;verticalAlign=middle;spacingLeft=4;spacingRight=4;overflow=hidden;points=[[0,0.5],[1,0.5]];portConstraint=eastwest;rotatable=0;fontColor=default;" vertex="1" parent="80sguaFrlqIsxUJohQp9-16">
          <mxGeometry y="30" width="190" height="30" as="geometry" />
        </mxCell>
        <mxCell id="80sguaFrlqIsxUJohQp9-18" value="text: String" style="text;strokeColor=none;fillColor=none;align=left;verticalAlign=middle;spacingLeft=4;spacingRight=4;overflow=hidden;points=[[0,0.5],[1,0.5]];portConstraint=eastwest;rotatable=0;fontColor=default;" vertex="1" parent="80sguaFrlqIsxUJohQp9-16">
          <mxGeometry y="60" width="190" height="30" as="geometry" />
        </mxCell>
        <mxCell id="80sguaFrlqIsxUJohQp9-19" value="price: Number" style="text;strokeColor=none;fillColor=none;align=left;verticalAlign=middle;spacingLeft=4;spacingRight=4;overflow=hidden;points=[[0,0.5],[1,0.5]];portConstraint=eastwest;rotatable=0;fontColor=default;" vertex="1" parent="80sguaFrlqIsxUJohQp9-16">
          <mxGeometry y="90" width="190" height="30" as="geometry" />
        </mxCell>
        <mxCell id="80sguaFrlqIsxUJohQp9-20" value="file: String" style="text;strokeColor=none;fillColor=none;align=left;verticalAlign=middle;spacingLeft=4;spacingRight=4;overflow=hidden;points=[[0,0.5],[1,0.5]];portConstraint=eastwest;rotatable=0;fontColor=default;" vertex="1" parent="80sguaFrlqIsxUJohQp9-16">
          <mxGeometry y="120" width="190" height="30" as="geometry" />
        </mxCell>
        <mxCell id="80sguaFrlqIsxUJohQp9-28" value="createdOn: Date" style="text;strokeColor=none;fillColor=none;align=left;verticalAlign=middle;spacingLeft=4;spacingRight=4;overflow=hidden;points=[[0,0.5],[1,0.5]];portConstraint=eastwest;rotatable=0;fontColor=default;" vertex="1" parent="80sguaFrlqIsxUJohQp9-16">
          <mxGeometry y="150" width="190" height="30" as="geometry" />
        </mxCell>
        <mxCell id="80sguaFrlqIsxUJohQp9-22" value="Message" style="swimlane;fontStyle=0;childLayout=stackLayout;horizontal=1;startSize=30;horizontalStack=0;resizeParent=1;resizeParentMax=0;resizeLast=0;collapsible=1;marginBottom=0;fontColor=default;strokeColor=default;fillColor=default;" vertex="1" parent="1">
          <mxGeometry x="755" y="1220" width="140" height="120" as="geometry" />
        </mxCell>
        <mxCell id="80sguaFrlqIsxUJohQp9-23" value="content: String" style="text;strokeColor=none;fillColor=none;align=left;verticalAlign=middle;spacingLeft=4;spacingRight=4;overflow=hidden;points=[[0,0.5],[1,0.5]];portConstraint=eastwest;rotatable=0;fontColor=default;" vertex="1" parent="80sguaFrlqIsxUJohQp9-22">
          <mxGeometry y="30" width="140" height="30" as="geometry" />
        </mxCell>
        <mxCell id="80sguaFrlqIsxUJohQp9-24" value="senderName: String" style="text;strokeColor=none;fillColor=none;align=left;verticalAlign=middle;spacingLeft=4;spacingRight=4;overflow=hidden;points=[[0,0.5],[1,0.5]];portConstraint=eastwest;rotatable=0;fontColor=default;" vertex="1" parent="80sguaFrlqIsxUJohQp9-22">
          <mxGeometry y="60" width="140" height="30" as="geometry" />
        </mxCell>
        <mxCell id="80sguaFrlqIsxUJohQp9-25" value="createdOn: Date" style="text;strokeColor=none;fillColor=none;align=left;verticalAlign=middle;spacingLeft=4;spacingRight=4;overflow=hidden;points=[[0,0.5],[1,0.5]];portConstraint=eastwest;rotatable=0;fontColor=default;" vertex="1" parent="80sguaFrlqIsxUJohQp9-22">
          <mxGeometry y="90" width="140" height="30" as="geometry" />
        </mxCell>
        <mxCell id="80sguaFrlqIsxUJohQp9-29" value="Contact Admin" style="swimlane;fontStyle=0;childLayout=stackLayout;horizontal=1;startSize=30;horizontalStack=0;resizeParent=1;resizeParentMax=0;resizeLast=0;collapsible=1;marginBottom=0;fontColor=default;strokeColor=default;fillColor=default;" vertex="1" parent="1">
          <mxGeometry x="190" y="1220" width="140" height="150" as="geometry" />
        </mxCell>
        <mxCell id="80sguaFrlqIsxUJohQp9-30" value="email: String" style="text;strokeColor=none;fillColor=none;align=left;verticalAlign=middle;spacingLeft=4;spacingRight=4;overflow=hidden;points=[[0,0.5],[1,0.5]];portConstraint=eastwest;rotatable=0;fontColor=default;" vertex="1" parent="80sguaFrlqIsxUJohQp9-29">
          <mxGeometry y="30" width="140" height="30" as="geometry" />
        </mxCell>
        <mxCell id="80sguaFrlqIsxUJohQp9-31" value="fullName: String" style="text;strokeColor=none;fillColor=none;align=left;verticalAlign=middle;spacingLeft=4;spacingRight=4;overflow=hidden;points=[[0,0.5],[1,0.5]];portConstraint=eastwest;rotatable=0;fontColor=default;" vertex="1" parent="80sguaFrlqIsxUJohQp9-29">
          <mxGeometry y="60" width="140" height="30" as="geometry" />
        </mxCell>
        <mxCell id="80sguaFrlqIsxUJohQp9-33" value="object: String" style="text;strokeColor=none;fillColor=none;align=left;verticalAlign=middle;spacingLeft=4;spacingRight=4;overflow=hidden;points=[[0,0.5],[1,0.5]];portConstraint=eastwest;rotatable=0;fontColor=default;" vertex="1" parent="80sguaFrlqIsxUJohQp9-29">
          <mxGeometry y="90" width="140" height="30" as="geometry" />
        </mxCell>
        <mxCell id="80sguaFrlqIsxUJohQp9-32" value="text: String" style="text;strokeColor=none;fillColor=none;align=left;verticalAlign=middle;spacingLeft=4;spacingRight=4;overflow=hidden;points=[[0,0.5],[1,0.5]];portConstraint=eastwest;rotatable=0;fontColor=default;" vertex="1" parent="80sguaFrlqIsxUJohQp9-29">
          <mxGeometry y="120" width="140" height="30" as="geometry" />
        </mxCell>
        <mxCell id="80sguaFrlqIsxUJohQp9-34" value="Post EventÂ " style="swimlane;fontStyle=0;childLayout=stackLayout;horizontal=1;startSize=30;horizontalStack=0;resizeParent=1;resizeParentMax=0;resizeLast=0;collapsible=1;marginBottom=0;fontColor=default;strokeColor=default;fillColor=default;" vertex="1" parent="1">
          <mxGeometry x="400" y="1130" width="140" height="180" as="geometry" />
        </mxCell>
        <mxCell id="80sguaFrlqIsxUJohQp9-35" value="title: String" style="text;strokeColor=none;fillColor=none;align=left;verticalAlign=middle;spacingLeft=4;spacingRight=4;overflow=hidden;points=[[0,0.5],[1,0.5]];portConstraint=eastwest;rotatable=0;fontColor=default;" vertex="1" parent="80sguaFrlqIsxUJohQp9-34">
          <mxGeometry y="30" width="140" height="30" as="geometry" />
        </mxCell>
        <mxCell id="80sguaFrlqIsxUJohQp9-36" value="category: String" style="text;strokeColor=none;fillColor=none;align=left;verticalAlign=middle;spacingLeft=4;spacingRight=4;overflow=hidden;points=[[0,0.5],[1,0.5]];portConstraint=eastwest;rotatable=0;fontColor=default;" vertex="1" parent="80sguaFrlqIsxUJohQp9-34">
          <mxGeometry y="60" width="140" height="30" as="geometry" />
        </mxCell>
        <mxCell id="80sguaFrlqIsxUJohQp9-37" value="text: String" style="text;strokeColor=none;fillColor=none;align=left;verticalAlign=middle;spacingLeft=4;spacingRight=4;overflow=hidden;points=[[0,0.5],[1,0.5]];portConstraint=eastwest;rotatable=0;fontColor=default;" vertex="1" parent="80sguaFrlqIsxUJohQp9-34">
          <mxGeometry y="90" width="140" height="30" as="geometry" />
        </mxCell>
        <mxCell id="80sguaFrlqIsxUJohQp9-38" value="location: String" style="text;strokeColor=none;fillColor=none;align=left;verticalAlign=middle;spacingLeft=4;spacingRight=4;overflow=hidden;points=[[0,0.5],[1,0.5]];portConstraint=eastwest;rotatable=0;fontColor=default;" vertex="1" parent="80sguaFrlqIsxUJohQp9-34">
          <mxGeometry y="120" width="140" height="30" as="geometry" />
        </mxCell>
        <mxCell id="80sguaFrlqIsxUJohQp9-39" value="createdOn: String" style="text;strokeColor=none;fillColor=none;align=left;verticalAlign=middle;spacingLeft=4;spacingRight=4;overflow=hidden;points=[[0,0.5],[1,0.5]];portConstraint=eastwest;rotatable=0;fontColor=default;" vertex="1" parent="80sguaFrlqIsxUJohQp9-34">
          <mxGeometry y="150" width="140" height="30" as="geometry" />
        </mxCell>
      </root>
    </mxGraphModel>
  </diagram>
</mxfile>
